<?xml version="1.0" encoding="UTF-8"?>
<svg width="88px" height="88px" viewBox="0 0 88 88" version="1.1" xmlns="http://www.w3.org/2000/svg" xmlns:xlink="http://www.w3.org/1999/xlink">
    <title>Path</title>
    <g id="Page-1" stroke="none" stroke-width="1" fill="none" fill-rule="evenodd">
        <g id="Group" transform="translate(-0.001393, 0.000000)" fill="#000000">
            <path d="M2.00154775,0 C1.24829701,0 0.558882095,0.422283 0.217461696,1.09244006 C-0.123958702,1.76259711 -0.0595857379,2.56731493 0.384047748,3.17491 L32.969987,47.78341 L32.969987,71.61561 C32.9700007,72.2232524 33.2470455,72.7978697 33.722797,73.17701 L51.772797,87.55971 C52.3739138,88.0383255 53.1965688,88.1309873 53.8894363,87.7981229 C54.5823038,87.4652584 55.0229173,86.7657026 55.023107,85.99821 L55.023107,47.78341 L87.618738,3.17491 C88.0623387,2.56735992 88.1267376,1.76271174 87.7853944,1.0925779 C87.4440513,0.42244406 86.754743,0 86.001548,0 L2.00154775,0 L2.00154775,0 Z" id="Path"></path>
        </g>
    </g>
</svg>